<mxfile host="app.diagrams.net" modified="2023-12-01T10:36:07.127Z" agent="Mozilla/5.0 (Windows NT 10.0; Win64; x64; rv:120.0) Gecko/20100101 Firefox/120.0" etag="Yd-3fIRQdChNZmwT4Dkk" version="22.1.5" type="device">
  <diagram id="C5RBs43oDa-KdzZeNtuy" name="Page-1">
    <mxGraphModel dx="2440" dy="1344" grid="1" gridSize="10" guides="1" tooltips="1" connect="1" arrows="1" fold="1" page="1" pageScale="1" pageWidth="827" pageHeight="1169" math="0" shadow="0">
      <root>
        <mxCell id="WIyWlLk6GJQsqaUBKTNV-0" />
        <mxCell id="WIyWlLk6GJQsqaUBKTNV-1" parent="WIyWlLk6GJQsqaUBKTNV-0" />
        <mxCell id="mpqSTVg95uEtOj9_YGUE-59" value="" style="edgeStyle=orthogonalEdgeStyle;rounded=0;orthogonalLoop=1;jettySize=auto;html=1;" parent="WIyWlLk6GJQsqaUBKTNV-1" edge="1">
          <mxGeometry relative="1" as="geometry">
            <mxPoint x="148.7700000000002" y="330" as="targetPoint" />
          </mxGeometry>
        </mxCell>
        <mxCell id="mpqSTVg95uEtOj9_YGUE-64" value="" style="edgeStyle=orthogonalEdgeStyle;rounded=0;orthogonalLoop=1;jettySize=auto;html=1;" parent="WIyWlLk6GJQsqaUBKTNV-1" edge="1">
          <mxGeometry relative="1" as="geometry">
            <mxPoint x="550" y="230" as="targetPoint" />
          </mxGeometry>
        </mxCell>
        <mxCell id="mpqSTVg95uEtOj9_YGUE-140" value="" style="edgeStyle=orthogonalEdgeStyle;rounded=0;orthogonalLoop=1;jettySize=auto;html=1;" parent="WIyWlLk6GJQsqaUBKTNV-1" source="mpqSTVg95uEtOj9_YGUE-141" target="mpqSTVg95uEtOj9_YGUE-148" edge="1">
          <mxGeometry relative="1" as="geometry" />
        </mxCell>
        <mxCell id="mpqSTVg95uEtOj9_YGUE-141" value="Salary.java&lt;br&gt;Constructor" style="strokeWidth=2;html=1;shape=mxgraph.flowchart.start_1;whiteSpace=wrap;" parent="WIyWlLk6GJQsqaUBKTNV-1" vertex="1">
          <mxGeometry x="98.75" y="30" width="100" height="60" as="geometry" />
        </mxCell>
        <mxCell id="mpqSTVg95uEtOj9_YGUE-142" value="Has arguments:&lt;br&gt; rateO&lt;br&gt;yearlySalary" style="strokeWidth=2;html=1;shape=mxgraph.flowchart.annotation_2;align=left;labelPosition=right;pointerEvents=1;" parent="WIyWlLk6GJQsqaUBKTNV-1" vertex="1">
          <mxGeometry x="220" y="30" width="50" height="60" as="geometry" />
        </mxCell>
        <mxCell id="mpqSTVg95uEtOj9_YGUE-143" value="End" style="strokeWidth=2;html=1;shape=mxgraph.flowchart.terminator;whiteSpace=wrap;" parent="WIyWlLk6GJQsqaUBKTNV-1" vertex="1">
          <mxGeometry x="98.75000000000001" y="430" width="100" height="60" as="geometry" />
        </mxCell>
        <mxCell id="mpqSTVg95uEtOj9_YGUE-144" value="" style="edgeStyle=orthogonalEdgeStyle;rounded=0;orthogonalLoop=1;jettySize=auto;html=1;" parent="WIyWlLk6GJQsqaUBKTNV-1" source="mpqSTVg95uEtOj9_YGUE-145" target="mpqSTVg95uEtOj9_YGUE-154" edge="1">
          <mxGeometry relative="1" as="geometry" />
        </mxCell>
        <mxCell id="mpqSTVg95uEtOj9_YGUE-145" value="Salary.java&lt;br&gt;ApplyTaxBands" style="strokeWidth=2;html=1;shape=mxgraph.flowchart.start_1;whiteSpace=wrap;" parent="WIyWlLk6GJQsqaUBKTNV-1" vertex="1">
          <mxGeometry x="500" y="30" width="100" height="60" as="geometry" />
        </mxCell>
        <mxCell id="mpqSTVg95uEtOj9_YGUE-146" value="Has arguments:&lt;br&gt; income&lt;br&gt;paymentBands" style="strokeWidth=2;html=1;shape=mxgraph.flowchart.annotation_2;align=left;labelPosition=right;pointerEvents=1;" parent="WIyWlLk6GJQsqaUBKTNV-1" vertex="1">
          <mxGeometry x="620" y="30" width="50" height="60" as="geometry" />
        </mxCell>
        <mxCell id="mpqSTVg95uEtOj9_YGUE-147" value="" style="edgeStyle=orthogonalEdgeStyle;rounded=0;orthogonalLoop=1;jettySize=auto;html=1;" parent="WIyWlLk6GJQsqaUBKTNV-1" source="mpqSTVg95uEtOj9_YGUE-148" target="mpqSTVg95uEtOj9_YGUE-150" edge="1">
          <mxGeometry relative="1" as="geometry" />
        </mxCell>
        <mxCell id="mpqSTVg95uEtOj9_YGUE-148" value="Set instance yearlySalary to yearlySalary" style="whiteSpace=wrap;html=1;strokeWidth=2;rounded=1;arcSize=12;" parent="WIyWlLk6GJQsqaUBKTNV-1" vertex="1">
          <mxGeometry x="93.75" y="140" width="110" height="60" as="geometry" />
        </mxCell>
        <mxCell id="mpqSTVg95uEtOj9_YGUE-149" value="" style="edgeStyle=orthogonalEdgeStyle;rounded=0;orthogonalLoop=1;jettySize=auto;html=1;" parent="WIyWlLk6GJQsqaUBKTNV-1" source="mpqSTVg95uEtOj9_YGUE-150" target="mpqSTVg95uEtOj9_YGUE-152" edge="1">
          <mxGeometry relative="1" as="geometry" />
        </mxCell>
        <mxCell id="mpqSTVg95uEtOj9_YGUE-150" value="Set instance netSalary to yearlySalary" style="whiteSpace=wrap;html=1;strokeWidth=2;rounded=1;arcSize=12;" parent="WIyWlLk6GJQsqaUBKTNV-1" vertex="1">
          <mxGeometry x="93.75" y="230" width="110" height="60" as="geometry" />
        </mxCell>
        <mxCell id="mpqSTVg95uEtOj9_YGUE-151" value="" style="edgeStyle=orthogonalEdgeStyle;rounded=0;orthogonalLoop=1;jettySize=auto;html=1;" parent="WIyWlLk6GJQsqaUBKTNV-1" source="mpqSTVg95uEtOj9_YGUE-152" target="mpqSTVg95uEtOj9_YGUE-143" edge="1">
          <mxGeometry relative="1" as="geometry" />
        </mxCell>
        <mxCell id="mpqSTVg95uEtOj9_YGUE-152" value="Set instance rateIO to rateIO" style="whiteSpace=wrap;html=1;strokeWidth=2;rounded=1;arcSize=12;" parent="WIyWlLk6GJQsqaUBKTNV-1" vertex="1">
          <mxGeometry x="93.75" y="320" width="110" height="60" as="geometry" />
        </mxCell>
        <mxCell id="mpqSTVg95uEtOj9_YGUE-153" style="edgeStyle=orthogonalEdgeStyle;rounded=0;orthogonalLoop=1;jettySize=auto;html=1;" parent="WIyWlLk6GJQsqaUBKTNV-1" source="mpqSTVg95uEtOj9_YGUE-154" target="mpqSTVg95uEtOj9_YGUE-156" edge="1">
          <mxGeometry relative="1" as="geometry" />
        </mxCell>
        <mxCell id="mpqSTVg95uEtOj9_YGUE-154" value="&lt;div align=&quot;left&quot;&gt;Set totalPayment = 0&lt;br&gt;Set previousBracket = 0&lt;br&gt;Set index = 0&lt;/div&gt;" style="whiteSpace=wrap;html=1;strokeWidth=2;rounded=1;arcSize=12;align=left;" parent="WIyWlLk6GJQsqaUBKTNV-1" vertex="1">
          <mxGeometry x="472.5" y="140" width="155" height="60" as="geometry" />
        </mxCell>
        <mxCell id="mpqSTVg95uEtOj9_YGUE-155" value="" style="edgeStyle=orthogonalEdgeStyle;rounded=0;orthogonalLoop=1;jettySize=auto;html=1;" parent="WIyWlLk6GJQsqaUBKTNV-1" source="mpqSTVg95uEtOj9_YGUE-156" target="mpqSTVg95uEtOj9_YGUE-158" edge="1">
          <mxGeometry relative="1" as="geometry" />
        </mxCell>
        <mxCell id="mpqSTVg95uEtOj9_YGUE-156" value="Set currentBracket = paymentBands[index].getBracket" style="whiteSpace=wrap;html=1;strokeWidth=2;rounded=1;arcSize=12;" parent="WIyWlLk6GJQsqaUBKTNV-1" vertex="1">
          <mxGeometry x="450" y="260" width="200" height="50" as="geometry" />
        </mxCell>
        <mxCell id="mpqSTVg95uEtOj9_YGUE-157" value="" style="edgeStyle=orthogonalEdgeStyle;rounded=0;orthogonalLoop=1;jettySize=auto;html=1;" parent="WIyWlLk6GJQsqaUBKTNV-1" source="mpqSTVg95uEtOj9_YGUE-158" target="mpqSTVg95uEtOj9_YGUE-163" edge="1">
          <mxGeometry relative="1" as="geometry" />
        </mxCell>
        <mxCell id="mpqSTVg95uEtOj9_YGUE-158" value="Set bracketRate = paymentBands[index].getRate" style="whiteSpace=wrap;html=1;strokeWidth=2;rounded=1;arcSize=12;" parent="WIyWlLk6GJQsqaUBKTNV-1" vertex="1">
          <mxGeometry x="450" y="340" width="200" height="50" as="geometry" />
        </mxCell>
        <mxCell id="mpqSTVg95uEtOj9_YGUE-159" style="edgeStyle=orthogonalEdgeStyle;rounded=0;orthogonalLoop=1;jettySize=auto;html=1;entryX=0;entryY=0.5;entryDx=0;entryDy=0;" parent="WIyWlLk6GJQsqaUBKTNV-1" source="mpqSTVg95uEtOj9_YGUE-163" target="mpqSTVg95uEtOj9_YGUE-166" edge="1">
          <mxGeometry relative="1" as="geometry" />
        </mxCell>
        <mxCell id="mpqSTVg95uEtOj9_YGUE-160" value="&lt;font style=&quot;font-size: 14px;&quot;&gt;Yes&lt;/font&gt;" style="edgeLabel;html=1;align=center;verticalAlign=middle;resizable=0;points=[];labelBackgroundColor=none;fontSize=14;" parent="mpqSTVg95uEtOj9_YGUE-159" vertex="1" connectable="0">
          <mxGeometry x="-0.1286" y="2" relative="1" as="geometry">
            <mxPoint y="-7" as="offset" />
          </mxGeometry>
        </mxCell>
        <mxCell id="mpqSTVg95uEtOj9_YGUE-161" style="edgeStyle=orthogonalEdgeStyle;rounded=0;orthogonalLoop=1;jettySize=auto;html=1;entryX=0.5;entryY=0;entryDx=0;entryDy=0;" parent="WIyWlLk6GJQsqaUBKTNV-1" source="mpqSTVg95uEtOj9_YGUE-163" target="mpqSTVg95uEtOj9_YGUE-171" edge="1">
          <mxGeometry relative="1" as="geometry" />
        </mxCell>
        <mxCell id="mpqSTVg95uEtOj9_YGUE-162" value="No" style="edgeLabel;html=1;align=center;verticalAlign=middle;resizable=0;points=[];" parent="mpqSTVg95uEtOj9_YGUE-161" vertex="1" connectable="0">
          <mxGeometry x="-0.1211" y="-1" relative="1" as="geometry">
            <mxPoint as="offset" />
          </mxGeometry>
        </mxCell>
        <mxCell id="mpqSTVg95uEtOj9_YGUE-163" value="currentBracket &amp;lt; 0" style="rhombus;whiteSpace=wrap;html=1;strokeWidth=2;rounded=1;arcSize=12;" parent="WIyWlLk6GJQsqaUBKTNV-1" vertex="1">
          <mxGeometry x="480" y="420" width="140" height="140" as="geometry" />
        </mxCell>
        <mxCell id="mpqSTVg95uEtOj9_YGUE-164" value="" style="edgeStyle=orthogonalEdgeStyle;rounded=0;orthogonalLoop=1;jettySize=auto;html=1;exitX=0.5;exitY=1;exitDx=0;exitDy=0;" parent="WIyWlLk6GJQsqaUBKTNV-1" source="mpqSTVg95uEtOj9_YGUE-190" target="mpqSTVg95uEtOj9_YGUE-188" edge="1">
          <mxGeometry relative="1" as="geometry">
            <mxPoint x="550" y="1270" as="sourcePoint" />
          </mxGeometry>
        </mxCell>
        <mxCell id="mpqSTVg95uEtOj9_YGUE-165" style="edgeStyle=orthogonalEdgeStyle;rounded=0;orthogonalLoop=1;jettySize=auto;html=1;entryX=1;entryY=0.5;entryDx=0;entryDy=0;exitX=1;exitY=0.5;exitDx=0;exitDy=0;" parent="WIyWlLk6GJQsqaUBKTNV-1" source="mpqSTVg95uEtOj9_YGUE-166" target="mpqSTVg95uEtOj9_YGUE-190" edge="1">
          <mxGeometry relative="1" as="geometry">
            <mxPoint x="550" y="1210" as="targetPoint" />
            <Array as="points">
              <mxPoint x="965" y="510" />
              <mxPoint x="980" y="510" />
              <mxPoint x="980" y="1055" />
            </Array>
          </mxGeometry>
        </mxCell>
        <mxCell id="mpqSTVg95uEtOj9_YGUE-166" value="totalPayment = totalPayment + ((currentBracket - previousBracket) * bracketRate)" style="whiteSpace=wrap;html=1;strokeWidth=2;rounded=1;arcSize=12;" parent="WIyWlLk6GJQsqaUBKTNV-1" vertex="1">
          <mxGeometry x="695" y="460" width="270" height="60" as="geometry" />
        </mxCell>
        <mxCell id="mpqSTVg95uEtOj9_YGUE-167" style="edgeStyle=orthogonalEdgeStyle;rounded=0;orthogonalLoop=1;jettySize=auto;html=1;entryX=0;entryY=0.5;entryDx=0;entryDy=0;" parent="WIyWlLk6GJQsqaUBKTNV-1" source="mpqSTVg95uEtOj9_YGUE-171" target="mpqSTVg95uEtOj9_YGUE-172" edge="1">
          <mxGeometry relative="1" as="geometry" />
        </mxCell>
        <mxCell id="mpqSTVg95uEtOj9_YGUE-168" value="Yes" style="edgeLabel;html=1;align=center;verticalAlign=middle;resizable=0;points=[];labelBackgroundColor=none;fontSize=14;" parent="mpqSTVg95uEtOj9_YGUE-167" vertex="1" connectable="0">
          <mxGeometry x="-0.0286" y="-5" relative="1" as="geometry">
            <mxPoint x="-3" y="-14" as="offset" />
          </mxGeometry>
        </mxCell>
        <mxCell id="mpqSTVg95uEtOj9_YGUE-169" style="edgeStyle=orthogonalEdgeStyle;rounded=0;orthogonalLoop=1;jettySize=auto;html=1;entryX=0.5;entryY=0;entryDx=0;entryDy=0;" parent="WIyWlLk6GJQsqaUBKTNV-1" source="mpqSTVg95uEtOj9_YGUE-171" target="mpqSTVg95uEtOj9_YGUE-177" edge="1">
          <mxGeometry relative="1" as="geometry" />
        </mxCell>
        <mxCell id="mpqSTVg95uEtOj9_YGUE-170" value="No" style="edgeLabel;html=1;align=center;verticalAlign=middle;resizable=0;points=[];" parent="mpqSTVg95uEtOj9_YGUE-169" vertex="1" connectable="0">
          <mxGeometry x="-0.2433" y="1" relative="1" as="geometry">
            <mxPoint as="offset" />
          </mxGeometry>
        </mxCell>
        <mxCell id="mpqSTVg95uEtOj9_YGUE-171" value="income &amp;gt; currentBracket" style="rhombus;whiteSpace=wrap;html=1;strokeWidth=2;rounded=1;arcSize=12;" parent="WIyWlLk6GJQsqaUBKTNV-1" vertex="1">
          <mxGeometry x="480" y="610" width="140" height="140" as="geometry" />
        </mxCell>
        <mxCell id="mpqSTVg95uEtOj9_YGUE-172" value="totalPayment = totalPayment + ((currentBracket - previousBracket) * bracketRate)" style="whiteSpace=wrap;html=1;strokeWidth=2;rounded=1;arcSize=12;" parent="WIyWlLk6GJQsqaUBKTNV-1" vertex="1">
          <mxGeometry x="695" y="650" width="270" height="60" as="geometry" />
        </mxCell>
        <mxCell id="mpqSTVg95uEtOj9_YGUE-173" style="edgeStyle=orthogonalEdgeStyle;rounded=0;orthogonalLoop=1;jettySize=auto;html=1;" parent="WIyWlLk6GJQsqaUBKTNV-1" source="mpqSTVg95uEtOj9_YGUE-177" target="mpqSTVg95uEtOj9_YGUE-179" edge="1">
          <mxGeometry relative="1" as="geometry" />
        </mxCell>
        <mxCell id="mpqSTVg95uEtOj9_YGUE-174" value="Yes" style="edgeLabel;html=1;align=center;verticalAlign=middle;resizable=0;points=[];" parent="mpqSTVg95uEtOj9_YGUE-173" vertex="1" connectable="0">
          <mxGeometry x="-0.3033" y="-1" relative="1" as="geometry">
            <mxPoint x="2" y="-1" as="offset" />
          </mxGeometry>
        </mxCell>
        <mxCell id="mpqSTVg95uEtOj9_YGUE-175" style="edgeStyle=orthogonalEdgeStyle;rounded=0;orthogonalLoop=1;jettySize=auto;html=1;entryX=0.5;entryY=0;entryDx=0;entryDy=0;" parent="WIyWlLk6GJQsqaUBKTNV-1" source="mpqSTVg95uEtOj9_YGUE-177" target="mpqSTVg95uEtOj9_YGUE-190" edge="1">
          <mxGeometry relative="1" as="geometry">
            <mxPoint x="550" y="1210" as="targetPoint" />
          </mxGeometry>
        </mxCell>
        <mxCell id="mpqSTVg95uEtOj9_YGUE-176" value="No" style="edgeLabel;html=1;align=center;verticalAlign=middle;resizable=0;points=[];" parent="mpqSTVg95uEtOj9_YGUE-175" vertex="1" connectable="0">
          <mxGeometry x="-0.6088" y="1" relative="1" as="geometry">
            <mxPoint as="offset" />
          </mxGeometry>
        </mxCell>
        <mxCell id="mpqSTVg95uEtOj9_YGUE-177" value="income &amp;gt; previousBracket and income &amp;lt; currentBracket" style="rhombus;whiteSpace=wrap;html=1;strokeWidth=2;rounded=1;arcSize=12;" parent="WIyWlLk6GJQsqaUBKTNV-1" vertex="1">
          <mxGeometry x="450" y="800" width="200" height="180" as="geometry" />
        </mxCell>
        <mxCell id="mpqSTVg95uEtOj9_YGUE-178" value="" style="edgeStyle=orthogonalEdgeStyle;rounded=0;orthogonalLoop=1;jettySize=auto;html=1;" parent="WIyWlLk6GJQsqaUBKTNV-1" source="mpqSTVg95uEtOj9_YGUE-179" target="mpqSTVg95uEtOj9_YGUE-181" edge="1">
          <mxGeometry relative="1" as="geometry" />
        </mxCell>
        <mxCell id="mpqSTVg95uEtOj9_YGUE-179" value="bracketAmount = income - previousBracket" style="whiteSpace=wrap;html=1;strokeWidth=2;rounded=1;arcSize=12;" parent="WIyWlLk6GJQsqaUBKTNV-1" vertex="1">
          <mxGeometry x="700" y="865" width="190" height="50" as="geometry" />
        </mxCell>
        <mxCell id="mpqSTVg95uEtOj9_YGUE-180" style="edgeStyle=orthogonalEdgeStyle;rounded=0;orthogonalLoop=1;jettySize=auto;html=1;exitX=0.5;exitY=1;exitDx=0;exitDy=0;entryX=1;entryY=0.5;entryDx=0;entryDy=0;" parent="WIyWlLk6GJQsqaUBKTNV-1" source="mpqSTVg95uEtOj9_YGUE-181" target="mpqSTVg95uEtOj9_YGUE-190" edge="1">
          <mxGeometry relative="1" as="geometry">
            <mxPoint x="620" y="1240" as="targetPoint" />
            <Array as="points">
              <mxPoint x="795" y="1055" />
            </Array>
          </mxGeometry>
        </mxCell>
        <mxCell id="mpqSTVg95uEtOj9_YGUE-181" value="totalPayment = totalPayment + (bracketAmount * bracketRate)" style="whiteSpace=wrap;html=1;strokeWidth=2;rounded=1;arcSize=12;" parent="WIyWlLk6GJQsqaUBKTNV-1" vertex="1">
          <mxGeometry x="695" y="950" width="200" height="50" as="geometry" />
        </mxCell>
        <mxCell id="mpqSTVg95uEtOj9_YGUE-182" style="edgeStyle=orthogonalEdgeStyle;rounded=0;orthogonalLoop=1;jettySize=auto;html=1;entryX=0.5;entryY=0;entryDx=0;entryDy=0;exitX=0.5;exitY=0;exitDx=0;exitDy=0;" parent="WIyWlLk6GJQsqaUBKTNV-1" source="mpqSTVg95uEtOj9_YGUE-183" target="mpqSTVg95uEtOj9_YGUE-156" edge="1">
          <mxGeometry relative="1" as="geometry">
            <Array as="points">
              <mxPoint x="385" y="220" />
              <mxPoint x="550" y="220" />
            </Array>
          </mxGeometry>
        </mxCell>
        <mxCell id="mpqSTVg95uEtOj9_YGUE-183" value="index = index + 1" style="whiteSpace=wrap;html=1;strokeWidth=2;rounded=1;arcSize=12;" parent="WIyWlLk6GJQsqaUBKTNV-1" vertex="1">
          <mxGeometry x="330" y="700" width="110" height="60" as="geometry" />
        </mxCell>
        <mxCell id="mpqSTVg95uEtOj9_YGUE-184" style="edgeStyle=orthogonalEdgeStyle;rounded=0;orthogonalLoop=1;jettySize=auto;html=1;" parent="WIyWlLk6GJQsqaUBKTNV-1" source="mpqSTVg95uEtOj9_YGUE-188" target="mpqSTVg95uEtOj9_YGUE-183" edge="1">
          <mxGeometry relative="1" as="geometry" />
        </mxCell>
        <mxCell id="mpqSTVg95uEtOj9_YGUE-185" value="No" style="edgeLabel;html=1;align=center;verticalAlign=middle;resizable=0;points=[];" parent="mpqSTVg95uEtOj9_YGUE-184" vertex="1" connectable="0">
          <mxGeometry x="-0.8422" y="1" relative="1" as="geometry">
            <mxPoint as="offset" />
          </mxGeometry>
        </mxCell>
        <mxCell id="mpqSTVg95uEtOj9_YGUE-186" value="" style="edgeStyle=orthogonalEdgeStyle;rounded=0;orthogonalLoop=1;jettySize=auto;html=1;" parent="WIyWlLk6GJQsqaUBKTNV-1" source="mpqSTVg95uEtOj9_YGUE-188" target="mpqSTVg95uEtOj9_YGUE-192" edge="1">
          <mxGeometry relative="1" as="geometry" />
        </mxCell>
        <mxCell id="mpqSTVg95uEtOj9_YGUE-187" value="Yes" style="edgeLabel;html=1;align=center;verticalAlign=middle;resizable=0;points=[];" parent="mpqSTVg95uEtOj9_YGUE-186" vertex="1" connectable="0">
          <mxGeometry x="-0.312" y="-1" relative="1" as="geometry">
            <mxPoint as="offset" />
          </mxGeometry>
        </mxCell>
        <mxCell id="mpqSTVg95uEtOj9_YGUE-188" value="index &amp;gt; bracketRate.length" style="rhombus;whiteSpace=wrap;html=1;strokeWidth=2;rounded=1;arcSize=12;" parent="WIyWlLk6GJQsqaUBKTNV-1" vertex="1">
          <mxGeometry x="480" y="1110" width="140" height="140" as="geometry" />
        </mxCell>
        <mxCell id="mpqSTVg95uEtOj9_YGUE-189" value="" style="edgeStyle=orthogonalEdgeStyle;rounded=0;orthogonalLoop=1;jettySize=auto;html=1;exitX=1;exitY=0.5;exitDx=0;exitDy=0;entryX=1;entryY=0.5;entryDx=0;entryDy=0;" parent="WIyWlLk6GJQsqaUBKTNV-1" source="mpqSTVg95uEtOj9_YGUE-172" target="mpqSTVg95uEtOj9_YGUE-190" edge="1">
          <mxGeometry relative="1" as="geometry">
            <mxPoint x="1000" y="730" as="sourcePoint" />
            <mxPoint x="550" y="1280" as="targetPoint" />
            <Array as="points">
              <mxPoint x="965" y="700" />
              <mxPoint x="980" y="700" />
              <mxPoint x="980" y="1055" />
            </Array>
          </mxGeometry>
        </mxCell>
        <mxCell id="mpqSTVg95uEtOj9_YGUE-190" value="previousBracket = currentBracket" style="whiteSpace=wrap;html=1;strokeWidth=2;rounded=1;arcSize=12;" parent="WIyWlLk6GJQsqaUBKTNV-1" vertex="1">
          <mxGeometry x="480" y="1030" width="140" height="50" as="geometry" />
        </mxCell>
        <mxCell id="mpqSTVg95uEtOj9_YGUE-191" value="" style="edgeStyle=orthogonalEdgeStyle;rounded=0;orthogonalLoop=1;jettySize=auto;html=1;" parent="WIyWlLk6GJQsqaUBKTNV-1" source="mpqSTVg95uEtOj9_YGUE-192" target="mpqSTVg95uEtOj9_YGUE-193" edge="1">
          <mxGeometry relative="1" as="geometry" />
        </mxCell>
        <mxCell id="mpqSTVg95uEtOj9_YGUE-192" value="Return totalPayment" style="whiteSpace=wrap;html=1;strokeWidth=2;rounded=1;arcSize=12;" parent="WIyWlLk6GJQsqaUBKTNV-1" vertex="1">
          <mxGeometry x="695" y="1150" width="120" height="60" as="geometry" />
        </mxCell>
        <mxCell id="mpqSTVg95uEtOj9_YGUE-193" value="Stop" style="strokeWidth=2;html=1;shape=mxgraph.flowchart.terminator;whiteSpace=wrap;" parent="WIyWlLk6GJQsqaUBKTNV-1" vertex="1">
          <mxGeometry x="865" y="1150" width="100" height="60" as="geometry" />
        </mxCell>
      </root>
    </mxGraphModel>
  </diagram>
</mxfile>
